<svg width="500" height="73" viewBox="0 0 500 73" fill="none" xmlns="http://www.w3.org/2000/svg">
<g clip-path="url(#clip0_156_280)">
<path d="M10.4034 6.78107H27.8182L42.5909 42.8038H43.2727L58.0455 6.78107H75.4602V64.9629H61.767V29.2243H61.2841L47.3068 64.5936H38.5568L24.5795 29.0254H24.0966V64.9629H10.4034V6.78107ZM112.385 46.1277V21.3265H126.249V64.9629H113.01V56.8379H112.555C111.589 59.5083 109.942 61.6296 107.612 63.2015C105.302 64.7546 102.508 65.5311 99.2315 65.5311C96.258 65.5311 93.6444 64.8493 91.3906 63.4856C89.1368 62.122 87.3849 60.2186 86.1349 57.7754C84.8849 55.3133 84.2505 52.4345 84.2315 49.139V21.3265H98.1236V46.4118C98.1425 48.7792 98.7675 50.6447 99.9986 52.0083C101.23 53.372 102.906 54.0538 105.027 54.0538C106.41 54.0538 107.65 53.7508 108.749 53.1447C109.866 52.5197 110.747 51.6201 111.391 50.4458C112.054 49.2527 112.385 47.8133 112.385 46.1277ZM173.188 34.6504L160.432 34.9913C160.299 34.0822 159.939 33.2773 159.352 32.5765C158.765 31.8568 157.998 31.2981 157.051 30.9004C156.123 30.4837 155.044 30.2754 153.812 30.2754C152.203 30.2754 150.83 30.5974 149.693 31.2413C148.576 31.8852 148.027 32.7565 148.045 33.8549C148.027 34.7072 148.367 35.4458 149.068 36.0708C149.788 36.6958 151.066 37.1977 152.903 37.5765L161.312 39.1674C165.669 40.0008 168.907 41.3833 171.028 43.3152C173.169 45.247 174.248 47.8038 174.267 50.9856C174.248 53.978 173.358 56.5822 171.597 58.7981C169.854 61.014 167.468 62.7375 164.438 63.9686C161.407 65.1807 157.941 65.7868 154.04 65.7868C147.809 65.7868 142.894 64.5083 139.295 61.9515C135.716 59.3758 133.67 55.9288 133.159 51.6106L146.881 51.2697C147.184 52.8606 147.97 54.0727 149.239 54.9061C150.508 55.7394 152.127 56.1561 154.097 56.1561C155.877 56.1561 157.326 55.8246 158.443 55.1618C159.561 54.4989 160.129 53.6182 160.148 52.5197C160.129 51.5349 159.693 50.7489 158.841 50.1618C157.989 49.5557 156.653 49.0822 154.835 48.7413L147.222 47.2924C142.847 46.497 139.589 45.0292 137.449 42.889C135.309 40.7299 134.248 37.9837 134.267 34.6504C134.248 31.7337 135.025 29.2432 136.597 27.1788C138.169 25.0955 140.403 23.5046 143.301 22.4061C146.199 21.3076 149.617 20.7583 153.557 20.7583C159.466 20.7583 164.125 21.9989 167.534 24.4799C170.943 26.9421 172.828 30.3322 173.188 34.6504ZM181.107 64.9629V21.3265H194.999V64.9629H181.107ZM188.067 16.2413C186.116 16.2413 184.44 15.5974 183.038 14.3095C181.637 13.0027 180.936 11.4307 180.936 9.59357C180.936 7.77539 181.637 6.22236 183.038 4.93448C184.44 3.62766 186.116 2.97425 188.067 2.97425C190.036 2.97425 191.713 3.62766 193.095 4.93448C194.497 6.22236 195.197 7.77539 195.197 9.59357C195.197 11.4307 194.497 13.0027 193.095 14.3095C191.713 15.5974 190.036 16.2413 188.067 16.2413ZM224.21 65.7868C219.608 65.7868 215.659 64.8398 212.364 62.9458C209.087 61.0519 206.568 58.4193 204.807 55.0481C203.045 51.658 202.165 47.7375 202.165 43.2868C202.165 38.8171 203.045 34.8966 204.807 31.5254C206.587 28.1352 209.116 25.4932 212.392 23.5993C215.688 21.7053 219.617 20.7583 224.182 20.7583C228.216 20.7583 231.729 21.4875 234.722 22.9458C237.733 24.4042 240.081 26.4686 241.767 29.139C243.472 31.7905 244.371 34.9061 244.466 38.4856H231.483C231.218 36.2508 230.46 34.4989 229.21 33.2299C227.979 31.961 226.369 31.3265 224.381 31.3265C222.771 31.3265 221.36 31.7811 220.148 32.6902C218.936 33.5803 217.989 34.9061 217.307 36.6674C216.644 38.4099 216.312 40.5689 216.312 43.1447C216.312 45.7205 216.644 47.8985 217.307 49.6788C217.989 51.4402 218.936 52.7754 220.148 53.6845C221.36 54.5746 222.771 55.0197 224.381 55.0197C225.669 55.0197 226.805 54.7451 227.79 54.1958C228.794 53.6466 229.617 52.8417 230.261 51.7811C230.905 50.7015 231.312 49.3947 231.483 47.8606H244.466C244.333 51.4591 243.434 54.603 241.767 57.2924C240.119 59.9818 237.799 62.0746 234.807 63.5708C231.833 65.0481 228.301 65.7868 224.21 65.7868ZM263.876 65.7015C261.092 65.7015 258.621 65.2375 256.462 64.3095C254.321 63.3625 252.626 61.9421 251.376 60.0481C250.145 58.1352 249.53 55.7394 249.53 52.8606C249.53 50.4364 249.956 48.3909 250.808 46.7243C251.661 45.0576 252.835 43.7034 254.331 42.6618C255.827 41.6201 257.551 40.8341 259.501 40.3038C261.452 39.7546 263.536 39.3852 265.751 39.1958C268.232 38.9686 270.231 38.7318 271.746 38.4856C273.261 38.2205 274.359 37.8511 275.041 37.3777C275.742 36.8852 276.092 36.1939 276.092 35.3038V35.1618C276.092 33.7034 275.59 32.5765 274.587 31.7811C273.583 30.9856 272.229 30.5879 270.524 30.5879C268.687 30.5879 267.21 30.9856 266.092 31.7811C264.975 32.5765 264.265 33.675 263.962 35.0765L251.149 34.622C251.528 31.9705 252.503 29.603 254.075 27.5197C255.666 25.4174 257.844 23.7697 260.609 22.5765C263.393 21.3644 266.736 20.7583 270.638 20.7583C273.422 20.7583 275.988 21.0898 278.337 21.7527C280.685 22.3966 282.731 23.3436 284.473 24.5936C286.215 25.8246 287.56 27.3398 288.507 29.139C289.473 30.9383 289.956 32.9932 289.956 35.3038V64.9629H276.888V58.8833H276.547C275.77 60.3606 274.776 61.6106 273.564 62.6333C272.371 63.6561 270.96 64.4231 269.331 64.9345C267.721 65.4458 265.903 65.7015 263.876 65.7015ZM268.166 56.6106C269.662 56.6106 271.007 56.3076 272.2 55.7015C273.412 55.0955 274.378 54.2621 275.098 53.2015C275.818 52.122 276.178 50.872 276.178 49.4515V45.3038C275.78 45.5121 275.297 45.7015 274.729 45.872C274.179 46.0424 273.573 46.2034 272.911 46.3549C272.248 46.5065 271.566 46.639 270.865 46.7527C270.164 46.8663 269.492 46.9705 268.848 47.0652C267.541 47.2735 266.424 47.5955 265.496 48.0311C264.587 48.4667 263.886 49.0349 263.393 49.7356C262.92 50.4174 262.683 51.2318 262.683 52.1788C262.683 53.6182 263.195 54.7167 264.217 55.4743C265.259 56.2318 266.575 56.6106 268.166 56.6106ZM298.45 64.9629V6.78107H312.513V53.5424H336.717V64.9629H298.45ZM343.997 64.9629V21.3265H357.889V64.9629H343.997ZM350.957 16.2413C349.007 16.2413 347.33 15.5974 345.929 14.3095C344.527 13.0027 343.827 11.4307 343.827 9.59357C343.827 7.77539 344.527 6.22236 345.929 4.93448C347.33 3.62766 349.007 2.97425 350.957 2.97425C352.927 2.97425 354.603 3.62766 355.986 4.93448C357.387 6.22236 358.088 7.77539 358.088 9.59357C358.088 11.4307 357.387 13.0027 355.986 14.3095C354.603 15.5974 352.927 16.2413 350.957 16.2413ZM366.732 64.9629V6.78107H380.624V28.7981H380.908C381.476 27.4724 382.281 26.194 383.322 24.9629C384.383 23.7318 385.728 22.728 387.357 21.9515C389.004 21.1561 390.974 20.7583 393.266 20.7583C396.296 20.7583 399.127 21.5538 401.76 23.1447C404.411 24.7356 406.552 27.1883 408.18 30.5027C409.809 33.8171 410.624 38.0405 410.624 43.1731C410.624 48.1163 409.838 52.2546 408.266 55.5879C406.713 58.9212 404.61 61.4212 401.959 63.0879C399.326 64.7546 396.4 65.5879 393.18 65.5879C390.983 65.5879 389.08 65.228 387.47 64.5083C385.86 63.7886 384.506 62.8417 383.408 61.6674C382.328 60.4932 381.495 59.2337 380.908 57.889H380.482V64.9629H366.732ZM380.339 43.1447C380.339 45.4932 380.652 47.5386 381.277 49.2811C381.921 51.0235 382.839 52.3777 384.033 53.3436C385.245 54.2905 386.694 54.764 388.379 54.764C390.084 54.764 391.533 54.2905 392.726 53.3436C393.919 52.3777 394.819 51.0235 395.425 49.2811C396.05 47.5386 396.362 45.4932 396.362 43.1447C396.362 40.7962 396.05 38.7602 395.425 37.0368C394.819 35.3133 393.919 33.978 392.726 33.0311C391.552 32.0841 390.103 31.6106 388.379 31.6106C386.675 31.6106 385.226 32.0746 384.033 33.0027C382.839 33.9307 381.921 35.2565 381.277 36.9799C380.652 38.7034 380.339 40.7583 380.339 43.1447ZM417.903 64.9629V21.3265H431.398V29.2811H431.852C432.648 26.4023 433.945 24.2621 435.744 22.8606C437.544 21.4402 439.636 20.7299 442.023 20.7299C442.667 20.7299 443.33 20.7773 444.011 20.872C444.693 20.9477 445.328 21.0708 445.915 21.2413V33.3152C445.252 33.0879 444.381 32.908 443.301 32.7754C442.241 32.6428 441.294 32.5765 440.46 32.5765C438.813 32.5765 437.326 32.9458 436 33.6845C434.693 34.4042 433.661 35.4174 432.903 36.7243C432.165 38.0121 431.795 39.5273 431.795 41.2697V64.9629H417.903ZM469.707 65.7868C465.143 65.7868 461.204 64.8871 457.889 63.0879C454.594 61.2697 452.056 58.6845 450.276 55.3322C448.514 51.961 447.634 47.9553 447.634 43.3152C447.634 38.8076 448.524 34.8682 450.304 31.497C452.084 28.1068 454.594 25.4743 457.832 23.5993C461.071 21.7053 464.887 20.7583 469.281 20.7583C472.387 20.7583 475.228 21.2413 477.804 22.2072C480.38 23.1731 482.605 24.603 484.48 26.497C486.355 28.3909 487.813 30.7299 488.855 33.514C489.897 36.2792 490.418 39.4515 490.418 43.0311V46.497H452.491V38.4288H477.491C477.473 36.9515 477.122 35.6352 476.44 34.4799C475.759 33.3246 474.821 32.425 473.628 31.7811C472.454 31.1182 471.099 30.7868 469.565 30.7868C468.012 30.7868 466.62 31.1371 465.389 31.8379C464.158 32.5197 463.183 33.4572 462.463 34.6504C461.743 35.8246 461.365 37.1599 461.327 38.6561V46.8663C461.327 48.6466 461.677 50.2091 462.378 51.5538C463.079 52.8796 464.073 53.9118 465.361 54.6504C466.649 55.389 468.183 55.7583 469.963 55.7583C471.194 55.7583 472.312 55.5879 473.315 55.247C474.319 54.9061 475.181 54.4042 475.901 53.7413C476.62 53.0784 477.16 52.264 477.52 51.2981L490.276 51.6674C489.745 54.5273 488.58 57.0178 486.781 59.139C485.001 61.2413 482.662 62.8796 479.764 64.0538C476.866 65.2091 473.514 65.7868 469.707 65.7868Z" fill="#8B00F9"/>
</g>
<defs>
<clipPath id="clip0_156_280">
<rect width="500" height="73" fill="white"/>
</clipPath>
</defs>
</svg>
